Coordinates
version=1
nRows=24
nColumns=24
inDegrees=yes

Units are S.I. units (second, meters, Newtons, ...)
Angles are in degrees.

endheader
time	pelvis_tilt	pelvis_list	pelvis_rotation	pelvis_tx	pelvis_ty	pelvis_tz	hip_flexion_r	hip_adduction_r	hip_rotation_r	knee_angle_r	ankle_angle_r	subtalar_angle_r	mtp_angle_r	hip_flexion_l	hip_adduction_l	hip_rotation_l	knee_angle_l	ankle_angle_l	subtalar_angle_l	mtp_angle_l	lumbar_extension	lumbar_bending	lumbar_rotation
      0.72483333	     -1.31697224	     -3.70134793	      2.19293311	     -0.46371689	      1.00961305	      0.31993726	      7.73790086	      7.15866121	     -1.89845128	    -15.64637732	     11.77408826	     -7.49144387	     -3.09451353	     14.58290692	     -3.79903977	      0.03321344	    -67.43101338	     -9.53736820	     -5.50507671	     -0.11575061	    -10.61418693	     12.13618324	     -0.69441531
      0.72900000	     -1.33826132	     -3.49288291	      2.25633038	     -0.45861951	      1.01043209	      0.32016686	      7.25759928	      6.97312900	     -1.88474853	    -15.27842203	     11.79338631	     -7.47865825	     -3.10008245	     15.09471198	     -3.58748066	      0.02716418	    -67.29376028	     -8.84111412	     -5.86449771	     -0.10883359	    -10.59069738	     11.84211188	     -0.59811815
      0.73316667	     -1.29696611	     -3.26466218	      2.29002648	     -0.45354121	      1.01134521	      0.32048160	      6.69518082	      6.78488754	     -1.78172293	    -14.87798677	     11.76390476	     -7.60501025	     -3.12438291	     15.51526794	     -3.37026642	     -0.02116422	    -67.07646845	     -8.17697106	     -6.20641150	     -0.12753757	    -10.70227275	     11.43122359	     -0.19857930
      0.73733333	     -1.28700203	     -3.03830581	      2.31752634	     -0.44846071	      1.01218033	      0.32077497	      6.17441767	      6.59307650	     -1.69345075	    -14.49452246	     11.74630608	     -7.70114672	     -3.15119500	     15.95898740	     -3.15072156	     -0.07602723	    -66.80659003	     -7.48787211	     -6.53448551	     -0.15440970	    -10.74748610	     11.07693827	      0.03249415
      0.74150000	     -1.27666572	     -2.81212210	      2.33886046	     -0.44336686	      1.01302063	      0.32105733	      5.64821257	      6.40047415	     -1.60325276	    -14.09960243	     11.71333678	     -7.79976045	     -3.18109757	     16.38491479	     -2.92922434	     -0.13644947	    -66.47028515	     -6.80701902	     -6.84675099	     -0.18889916	    -10.79416223	     10.72481971	      0.25440316
      0.74566667	     -1.25857618	     -2.57851695	      2.35085073	     -0.43827540	      1.01384155	      0.32133569	      5.11584666	      6.19882149	     -1.51242999	    -13.70957386	     11.68554296	     -7.88961379	     -3.21724696	     16.78650967	     -2.69994031	     -0.21032345	    -66.07413122	     -6.13174232	     -7.14242305	     -0.23935031	    -10.85290259	     10.36883802	      0.49187890
      0.74983333	     -1.25324512	     -2.33455488	      2.35816414	     -0.43319233	      1.01463537	      0.32160564	      4.60202301	      5.98239297	     -1.43054797	    -13.32797692	     11.65319279	     -7.97192536	     -3.25410468	     17.18553747	     -2.45429241	     -0.28475757	    -65.61383736	     -5.46218372	     -7.41175533	     -0.29486195	    -10.89492881	     10.00096146	      0.70290266
      0.75400000	     -1.24370695	     -2.09999262	      2.35246722	     -0.42811363	      1.01539996	      0.32187048	      4.08636206	      5.77509343	     -1.34071632	    -12.94940163	     11.61352070	     -8.04121117	     -3.30777489	     17.56612612	     -2.22163214	     -0.37432684	    -65.10241508	     -4.78573316	     -7.68292698	     -0.39093254	    -10.95455365	      9.63973817	      0.95938811
      0.75816667	     -1.23099196	     -1.84203337	      2.36133003	     -0.42302493	      1.01616763	      0.32208837	      3.56985401	      5.53603339	     -1.29752214	    -12.57910413	     11.59359534	     -8.09619500	     -3.34142171	     17.92257310	     -1.95003330	     -0.44266266	    -64.51557223	     -4.13480301	     -7.88244650	     -0.44752428	    -10.98554737	      9.27567057	      1.09969697
      0.76233333	     -1.21647560	     -1.60715752	      2.35277464	     -0.41796950	      1.01688533	      0.32232277	      3.05155035	      5.32352216	     -1.21926676	    -12.20029500	     11.55008931	     -8.14853053	     -3.39113616	     18.26888865	     -1.70823518	     -0.52435180	    -63.89047872	     -3.46913621	     -8.09120011	     -0.54499294	    -11.06374143	      8.90795333	      1.34281486
      0.76650000	     -1.26570010	     -1.36868892	      2.35264412	     -0.41292881	      1.01746886	      0.32250501	      2.63016588	      5.09528122	     -1.20412399	    -11.88020804	     11.50900918	     -8.15839781	     -3.41244737	     18.67520903	     -1.44634836	     -0.58593514	    -63.21963388	     -2.79887922	     -8.28760768	     -0.57897424	    -11.03855242	      8.58307269	      1.42144816
      0.77066667	     -1.20288910	     -1.14056593	      2.32996311	     -0.40786086	      1.01820615	      0.32271606	      2.05403977	      4.88795544	     -1.12033877	    -11.48623507	     11.46036373	     -8.21790634	     -3.48218008	     18.92832176	     -1.20922859	     -0.66783795	    -62.47027942	     -2.15113028	     -8.42292455	     -0.73932981	    -11.16168596	      8.24390273	      1.75440002
      0.77483333	     -1.26764836	     -0.90917155	      2.33517210	     -0.40283260	      1.01871114	      0.32286096	      1.65023987	      4.66349858	     -1.11760463	    -11.16373546	     11.42225032	     -8.22203320	     -3.50377994	     19.32265882	     -0.94354822	     -0.70988384	    -61.69138453	     -1.51792118	     -8.55782866	     -0.77916401	    -11.11801553	      7.91560168	      1.80725490
      0.77900000	     -1.20354992	     -0.67249451	      2.30809476	     -0.39777108	      1.01938523	      0.32302723	      1.08680808	      4.43847004	     -1.07004361	    -10.79841891	     11.37213231	     -8.24741256	     -3.59482642	     19.53824760	     -0.68695242	     -0.78311499	    -60.82792293	     -0.89086394	     -8.64992907	     -1.01913041	    -11.23741267	      7.57503470	      2.12717065
      0.78316667	     -1.24523004	     -0.44209004	      2.30714926	     -0.39274956	      1.01987266	      0.32312858	      0.66662324	      4.21000429	     -1.07692236	    -10.49178488	     11.32564335	     -8.25480973	     -3.62623457	     19.86638611	     -0.40873199	     -0.80049109	    -59.92666660	     -0.30120432	     -8.70476858	     -1.09271925	    -11.21467128	      7.27562988	      2.19129294
      0.78733333	     -1.22628318	     -0.23567817	      2.29789438	     -0.38771356	      1.02039347	      0.32325520	      0.15808156	      4.01336523	     -1.04709582	    -10.13422683	     11.29656361	     -8.25142749	     -3.67907824	     20.11293568	     -0.16930911	     -0.83173734	    -58.98165227	      0.28328643	     -8.73463241	     -1.23853893	    -11.28370508	      6.96588464	      2.39075410
      0.79150000	     -1.23983633	     -0.02718534	      2.28545478	     -0.38269617	      1.02083326	      0.32334281	     -0.29395328	      3.80676478	     -1.04091903	     -9.81930402	     11.24745114	     -8.23874688	     -3.73742602	     20.37803334	      0.08635915	     -0.84489938	    -57.98556420	      0.84767533	     -8.77100521	     -1.41024012	    -11.31004498	      6.67762648	      2.55494725
      0.79566667	     -1.27806781	      0.18080014	      2.27453505	     -0.37769823	      1.02120639	      0.32339258	     -0.69879446	      3.59413102	     -1.06672056	     -9.54481651	     11.17019150	     -8.21924518	     -3.76987374	     20.65327260	      0.35273999	     -0.83901919	    -56.93687079	      1.39087333	     -8.78906312	     -1.49972846	    -11.29715769	      6.41288694	      2.63429043
      0.79983333	     -1.24660268	      0.36762703	      2.26199410	     -0.37267911	      1.02164182	      0.32345593	     -1.20935607	      3.41084681	     -1.05147355	     -9.20517186	     11.13868940	     -8.18337977	     -3.82632517	     20.83442287	      0.59002927	     -0.82906790	    -55.84049392	      1.89555711	     -8.78782997	     -1.68428436	    -11.38723047	      6.14473458	      2.82522494
      0.80400000	     -1.26214454	      0.54524890	      2.25169027	     -0.36767547	      1.02197270	      0.32349051	     -1.64967295	      3.23177754	     -1.05012144	     -8.90385282	     11.08075277	     -8.16305662	     -3.88772107	     21.05277430	      0.82819921	     -0.79914218	    -54.69985043	      2.37406493	     -8.77126093	     -1.88987414	    -11.41094622	      5.90324969	      2.96589369
      0.80816667	     -1.32461867	      0.71608983	      2.21840789	     -0.36269756	      1.02219141	      0.32354099	     -2.01312990	      3.05706975	     -1.01753905	     -8.65704235	     11.04438711	     -8.17773843	     -4.55422343	     21.30781597	      1.06018552	     -0.77206626	    -53.52578025	      2.89399443	     -8.73031428	     -4.36880692	    -11.38730674	      5.64140784	      3.24949293
      0.81233333	     -1.33567548	      0.88750592	      2.22409012	     -0.35768239	      1.02246780	      0.32351091	     -2.44736370	      2.87788993	     -1.07464315	     -8.37796402	     10.95284870	     -8.09742451	     -4.56922029	     21.48223706	      1.30930048	     -0.69317077	    -52.28134039	      3.29036683	     -8.67999780	     -4.38499906	    -11.39775947	      5.44446701	      3.19967690
      0.81650000	     -1.37494262	      1.04607391	      2.21588074	     -0.35267892	      1.02267068	      0.32349424	     -2.84593124	      2.71171924	     -1.08995987	     -8.10851599	     10.89795202	     -8.04731106	     -4.58336389	     21.67168255	      1.54273722	     -0.61665847	    -50.99559715	      3.65890720	     -8.65016890	     -4.40685296	    -11.39533810	      5.24682593	      3.25642995
      0.82066667	     -1.36797777	      1.19283582	      2.20613374	     -0.34767364	      1.02288145	      0.32347600	     -3.30255884	      2.56087832	     -1.08380882	     -7.82197873	     10.87075211	     -7.98786514	     -4.60317716	     21.79248977	      1.76452236	     -0.52528896	    -49.66597094	      3.97767375	     -8.62866827	     -4.45193516	    -11.45355115	      5.05284631	      3.37791654
